<svg viewBox="0 0 92.94 46.013" xmlns="http://www.w3.org/2000/svg"><g fill="#fff"><path d="m5.041 5.68h51.334l1.846-1.349.779.569.213-1.914 1.705-.642 1.349.142.781-1.349 3.622-1.137.994.639h.781l.213.994-.923.355.142.781.642-.355 1.56 3.692-9.23 10.864 8.8 5.825 2.985 4.686 1.207 1.42 2.7.568.568 4.047 3.479 1.917 2.769-.142-.994.923 1.918-.214 1.207-.923 5.112-1.56.213-2.769-.926-1.922-.994 1.56-.213-3.692-2.911-1.56-.142 1.349-1.207-1.56.923-.639 3.266.923 2.556 3.124 1.42 3.763.354 4.329-.781-2.13-.779 1.42 1.136 1.136s-.068.639-.213 1.42c-.142 1.136-.355 2.485-.355 2.485l-.994.213.639-2.911-.568-.568-8.947 1.212-.568.923-1.209.137.427-.994-1.205 1.134-.568 1.7-4.047.355-1.349.781.568-1.42.213-2.911.568-1.56-1.207-1.554-3.479 3.9-2.556.355-1.7 1.56.994 1.136-1.709 1.358-2.911.213-.639-3.341-3.765-5.114-1.7-.353v-3.765h-1.7l.142-3.337h-54.677z" opacity=".6"/><path d="m66.755 14.923-.355 2.13 1.42.852-.426 1.349 1.7 2.13-.923.711v1.775l.781.213.148 1.777 1.775 1.775.213 1.917 2.7.213 1.988-1.207.781.639 5.61-2.556-.5-1 .71-.568.782.781 1.207-.639h.923l1.42 1.846.781-.284.426 1.988 4.189.639.426-.994.781.568-.923.994 1.846-.781-1.349-1.988-2.13-3.763-1.496-1.49-2.343-.994-.852-.994-1.349.426.994.426.355.781-1.349.142-.355-.781-.426.426-.71-.566.5-.568-1.136-.068.781-.994 1.207-.5-.639-1.775.568-1.065.213.852h1.136l-.5-.781.142-.568h.994l.355-.639 1.065-.568-1.2-1.208 3.9-1.278.994-1.065v.851l.781-.213.355-1.207.923-.568v-1l-.923.284v-.773h-.994l-.639 1.065-1.914.284.568-.639-1.278-.426-.284-.781-.568.213-.358-.781-3.474 1.633-.068 1.7-1.282-.422-1.56 1.065h-1.213l-.781-.284-.639.994-.923.639v1.349l-1.7-.213-.851-.923h-1.212l-.71.923h-.994l-1.136-1.7-1.346 1.065.142 1.42-.71.568.355.781-1.136.068z" transform="translate(-19.256 -2.001)"/><path d="m.2 57.409h2.911v-12l5.254 7.81h.068l5.254-7.881v12h2.913v-16.689h-3.055l-5.109 7.885-5.112-7.882h-3.124zm19.6 0h2.985l1.7-4.047h7.878l1.7 4.047h3.124l-7.313-16.9h-2.7zm5.822-6.674 2.84-6.674 2.911 6.674zm14.768 6.674h2.985v-5.4h3.337c3.692 0 6.674-1.988 6.674-5.68v-.068c0-3.337-2.485-5.609-6.39-5.609h-6.609v16.76zm2.985-8.094v-6.033h3.408c2.2 0 3.621.994 3.621 2.985v.068c0 1.775-1.42 2.985-3.621 2.985zm21.087 8.378a8.667 8.667 0 0 0 6.816-2.985l-1.917-1.917a6.566 6.566 0 0 1 -4.828 2.2 5.692 5.692 0 0 1 -5.538-5.964v-.067a5.631 5.631 0 0 1 5.538-5.893 6.8 6.8 0 0 1 4.686 2.059l1.917-2.2a8.673 8.673 0 0 0 -6.536-2.626 8.518 8.518 0 0 0 -8.662 8.662v.068a8.444 8.444 0 0 0 8.52 8.665z" transform="translate(-.058 -11.684)"/></g></svg>